<svg xmlns="http://www.w3.org/2000/svg" width="30" height="30" viewBox="0 0 32.499999 32.50001"><path d="M17.252083333333,7.407291666667C20.447916666667,8.802083333333,22.140625,12.228125,21.558333333333,15.51875C23.278125,17.008333333333,24.375,19.215625,24.375,21.666666666667V21.896875C24.794791666667,21.747916666667,25.255208333333,21.666666666667,25.729166666667,21.666666666667A4.0625,4.0625,0,0,1,29.791666666667,25.729166666667A4.0625,4.0625,0,0,1,25.729166666667,29.791666666667H8.125A5.416666666667,5.416666666667,0,0,1,2.708333333333,24.375A5.416666666667,5.416666666667,0,0,1,8.125,18.958333333333H8.490625C6.770833333333,16.859375,6.229166666667,13.866666666667,7.447916666667,11.185416666667C9.1,7.447916666667,13.501041666667,5.741666666667,17.252083333333,7.407291666667M16.155208333333,9.885416666667C13.758333333333,8.802083333333,10.955208333333,9.898958333333,9.898958333333,12.282291666667C9.276041666667,13.663541666667,9.384375,15.19375,10.034375,16.426041666667C11.510416666667,14.665625,13.758333333333,13.541666666667,16.25,13.541666666667C17.197916666667,13.541666666667,18.11875,13.704166666667,18.958333333333,14.002083333333C18.877083333333,12.26875,17.847916666667,10.64375,16.155208333333,9.885416666667M18.348958333333,4.929166666667C17.604166666667,4.604166666667,16.859375,4.373958333333,16.0875,4.225L19.459375,2.464583333333L20.678125,6.378125C19.9875,5.809375,19.215625,5.321875,18.348958333333,4.929166666667M8.246875,6.0125C7.583333333333,6.486458333333,7.001041666667,7.028125,6.5,7.623958333333L6.648958333333,3.81875L10.657291666667,4.739583333333C9.817708333333,5.023958333333,9.005208333333,5.457291666667,8.246875,6.0125M24.375,13.148958333333C24.253125,12.35,24.077083333333,11.578125,23.819791666667,10.833333333333L27.042708333333,12.864583333333L24.266666666667,15.884375C24.415625,15.004166666667,24.442708333333,14.083333333333,24.375,13.148958333333M4.116666666667,15.302083333333C4.211458333333,16.114583333333,4.3875,16.886458333333,4.644791666667,17.604166666667L1.435416666667,15.572916666667L4.197916666667,12.566666666667C4.0625,13.446875,4.021875,14.367708333333,4.116666666667,15.302083333333M25.729166666667,24.375H21.666666666667V21.666666666667A5.416666666667,5.416666666667,0,0,0,16.25,16.25A5.416666666667,5.416666666667,0,0,0,10.833333333333,21.666666666667H8.125A2.708333333333,2.708333333333,0,0,0,5.416666666667,24.375A2.708333333333,2.708333333333,0,0,0,8.125,27.083333333333H25.729166666667A1.354166666667,1.354166666667,0,0,0,27.083333333333,25.729166666667A1.354166666667,1.354166666667,0,0,0,25.729166666667,24.375Z" /></svg>
