<?xml version="1.0" encoding="UTF-8" standalone="no"?>
<svg
   width="30"
   height="30"
   viewBox="0 0 32.5 32.5"
   version="1.1"
   id="svg10"
   xml:space="preserve"
   xmlns="http://www.w3.org/2000/svg"
   xmlns:svg="http://www.w3.org/2000/svg"><defs
     id="defs14" /><path
     d="M 8.9841772,20.8 5.1360759,20.221519 3.35,18.85 l -0.5,-1.4 -0.2,-1.5 0.2,-1.6 0.7,-1.5 1.1,-1.2 1.35,-0.85 1.55,-0.35 1.2,0.1 0.7,-2.05 1.45,-1.85 1.9,-1.2 2.15,-0.7 2.25,-0.2 2.1,0.55 1.8,1.1 1.4,1.55 0.85,1.85 0.4,1.95 1.9,0.1 1.6,0.4 1.4,0.85 1.05,1.25 0.65,1.5 0.1,1.55 -0.4,1.4 -0.85,1.15 -1.751266,0.863291 L 23.658861,20.8"
     id="path2"
     style="fill:none;stroke:#000000;stroke-width:1;stroke-linecap:butt;stroke-linejoin:miter;stroke-miterlimit:2.5" /><path
     d="m 16.145678,16.37441 h 3.107486 l -2.039288,4.175687 h 2.039288 l -3.884358,7.380282 0.776872,-5.243884 h -2.621943 z"
     id="path6958"
     style="stroke-width:0.776872" /></svg>
