<svg xmlns="http://www.w3.org/2000/svg" width="30" height="30" viewBox="0 0 32.499999 32.50001"><path d="M16.25,9.479166666667A6.770833333333,6.770833333333,0,0,1,23.020833333333,16.25A6.770833333333,6.770833333333,0,0,1,16.25,23.020833333333A6.770833333333,6.770833333333,0,0,1,9.479166666667,16.25A6.770833333333,6.770833333333,0,0,1,16.25,9.479166666667M16.25,12.1875A4.0625,4.0625,0,0,0,12.1875,16.25A4.0625,4.0625,0,0,0,16.25,20.3125A4.0625,4.0625,0,0,0,20.3125,16.25A4.0625,4.0625,0,0,0,16.25,12.1875M16.25,2.708333333333L19.486458333333,7.339583333333C18.484375,6.973958333333,17.3875,6.770833333333,16.25,6.770833333333C15.1125,6.770833333333,14.015625,6.973958333333,13.013541666667,7.339583333333L16.25,2.708333333333M4.522916666667,9.479166666667L10.15625,9.005208333333C9.34375,9.695833333333,8.6125,10.535416666667,8.04375,11.510416666667C7.447916666667,12.5125,7.109375,13.541666666667,6.919791666667,14.611458333333L4.522916666667,9.479166666667M4.55,23.020833333333L6.933333333333,17.915625C7.122916666667,18.958333333333,7.488541666667,20.014583333333,8.057291666667,20.989583333333C8.626041666667,21.991666666667,9.357291666667,22.83125,10.15625,23.521875L4.55,23.020833333333M27.963541666667,9.479166666667L25.566666666667,14.611458333333C25.377083333333,13.541666666667,25.011458333333,12.498958333333,24.442708333333,11.510416666667C23.873958333333,10.535416666667,23.15625,9.682291666667,22.34375,8.991666666667L27.963541666667,9.479166666667M27.95,23.020833333333L22.34375,23.508333333333C23.142708333333,22.817708333333,23.860416666667,21.964583333333,24.429166666667,20.989583333333C24.997916666667,20.001041666667,25.363541666667,18.958333333333,25.553125,17.888541666667L27.95,23.020833333333M16.25,29.791666666667L12.986458333333,25.133333333333C13.988541666667,25.498958333333,15.085416666667,25.729166666667,16.25,25.729166666667C17.360416666667,25.729166666667,18.457291666667,25.498958333333,19.459375,25.133333333333L16.25,29.791666666667Z" /></svg>
